<!-- icon666.com - MILLIONS vector ICONS FREE --><svg id="Layer_1" enable-background="new 0 0 128 128" viewBox="0 0 128 128" xmlns="http://www.w3.org/2000/svg"><path id="Up_Arrow_4_" d="m96 80c-1.023 0-2.047-.391-2.828-1.172l-29.172-29.172-29.172 29.172c-1.563 1.563-4.094 1.563-5.656 0s-1.563-4.094 0-5.656l32-32c1.563-1.563 4.094-1.563 5.656 0l32 32c1.563 1.563 1.563 4.094 0 5.656-.781.781-1.805 1.172-2.828 1.172zm32-16c0-35.289-28.711-64-64-64s-64 28.711-64 64 28.711 64 64 64 64-28.711 64-64zm-8 0c0 30.879-25.121 56-56 56s-56-25.121-56-56 25.121-56 56-56 56 25.121 56 56z"></path></svg>